<svg xmlns="http://www.w3.org/2000/svg" xmlns:xlink="http://www.w3.org/1999/xlink" xmlns:inkscape="http://www.inkscape.org/namespaces/inkscape" version="1.1" width="612" height="792" viewBox="0 0 612 792">
<text xml:space="preserve" transform="matrix(1 0 -0 1 45.6 67.599979)" font-size="18" font-family="Nimbus Roman" font-weight="bold"><tspan y="-4" x="193.134 206.13 211.134 219.126 229.134 238.134 243.138 252.138 259.14 263.64 272.64 281.64 291.648 301.656 308.65803 317.65803">Nicholas Johnson</tspan></text>
<text xml:space="preserve" transform="matrix(1 0 -0 1 45.6 80.599979)" font-size="7.5" font-family="Nimbus Roman"><tspan y="-2.5" x="44.16375 46.66125 50.41125 54.16125 57.91125 60.408754 62.283754 66.03375 69.78375 73.53375 76.03125 79.78125 83.53125 87.28125 91.03125 92.90625 94.78125 96.28125 98.15625 100.03125 102.11625 105.86625 109.61625 113.36625 116.28375 120.03375 123.78375 127.53375 129.61876 132.94876 136.69876 140.44876 142.53377 145.86377 148.78127 152.53127 156.28127 160.03127 166.93877 170.68877 176.52378 179.85378 181.93878 184.02379 185.89879 189.22879 192.97879 198.8138 200.6888 202.5638 204.0638 205.9388 207.8138 209.8988 211.98381 215.73381 219.48381 222.81381 226.56381 228.64882 232.39882 234.27382 237.60382 241.35382 247.18883 249.27384 251.35884 255.10884 257.19386 259.27885 263.02885 266.77885 270.52885 273.44636 277.19636 280.94636 283.03135 285.11634 288.86634 292.61634 294.49134 296.36634 297.86634 299.74134 301.61634 305.36634 307.45133 309.53633 313.28633 317.03633 320.78633 322.66133 325.9913 329.7413 335.5763 337.6613 341.4113 344.74128 346.82627 350.57627 354.32627 358.07627 359.95127 361.82627 363.32627 365.20127 367.07627 370.82627 372.91127 376.24125 379.99125 383.74125 385.82624 389.15623 392.07374 394.57124 396.65623 400.40623 404.15623 407.90623 410.82374 414.57374 418.32374 420.82124 426.23625 429.56623 433.31623 436.23374 438.31874 440.40373 443.7337 445.6087 449.3587 452.6887 455.1862 458.51618 461.84617 463.93116 465.80616 469.13615 472.88615">(703) 380-2204  |  johnsonnicholas440@gmail.com  |  linkedin.com/in/johnsonlink  |  github.com/nej296  |  nicholas-johnson-website.vercel.app</tspan></text>
<path transform="matrix(1,0,0,-1,45.6,86.29999)" stroke-width=".7" stroke-linecap="round" stroke-miterlimit="10" stroke-linejoin="miter" fill="none" stroke="#000000" d="M0 0H520.8"/>
<text xml:space="preserve" transform="matrix(1 0 -0 1 45.6 106.29999)" font-size="11" font-family="Nimbus Roman" font-weight="bold"><tspan y="-3" x="0 7.337001 15.279001 23.221003 31.163004 39.105005 46.442007 50.721006 59.279008">EDUCATION</tspan></text>
<path transform="matrix(1,0,0,-1,45.6,108)" stroke-width=".7" stroke-linecap="round" stroke-miterlimit="10" stroke-linejoin="miter" fill="none" stroke="#000000" d="M0 0H520.8"/>
<text xml:space="preserve" transform="matrix(1 0 -0 1 39.6 125)" font-size="10" font-family="Nimbus Roman" font-weight="bold"><tspan y="-3" x="0 7.7800009 12.220001 17.220002 21.660002 26.660002 31.100003 33.600004 43.04 48.04 51.93 56.93 62.49 64.990009 72.21001 77.770008 80.55 85.55 89.990009 94.43001 98.32001 101.100009 104.43001">George Mason University</tspan></text>
<text xml:space="preserve" transform="matrix(1 0 -0 1 401.904 125)" font-size="9" font-family="Nimbus Roman" font-weight="bold"><tspan y="-4" x="29.25 35.253 39.753 44.757 48.753 52.749 55.746004 59.742006 64.746 66.996 73.998 77.994 82.494 87.498 92.502 97.002 99.999 102.501 107.001 112.005 115.002 117.252 122.256 127.259998 134.75699 142.25399 146.24999 150.24599 152.49599 156.99599 161.49599 165.99599">Expected Graduation: Summer 2027</tspan></text>
<text xml:space="preserve" transform="matrix(1 0 -0 1 39.6 137)" font-size="9" font-family="Nimbus Roman" font-style="italic"><tspan y="-3" x="0 5.499 7.749 12.249001 14.499001 16.749 22.752 26.748002 31.248002 34.749 39.249 42.75 46.746004 49.248 53.244005 57.744005 61.740007 65.73601 67.98601 70.23601 76.239009 80.739009 83.241008 85.743007 89.739009 94.239009 98.23501 100.48501 104.98501 107.48701 109.73701 114.23701 118.23301 120.73501 124.73101 129.23102 133.22702 137.22303 139.47303 141.94803">B.S. Neuroscience, College of Science | </tspan></text>
<text xml:space="preserve" transform="matrix(1 0 -0 1 39.6 137)" font-size="9" font-family="Nimbus Roman" font-weight="bold" font-style="italic"><tspan y="-3" x="144.19803 150.69603 156.19503 162.19803 165.19503 167.44503 171.94503 174.19503 178.69503">GPA: 3.15</tspan></text>
<text xml:space="preserve" transform="matrix(1 0 -0 1 401.904 137)" font-size="9" font-family="Nimbus Roman" font-style="italic"><tspan y="-3" x="127.998 133.497 137.997 140.499 144 146.502 151.002 154.998 157.248 159.498 164.997">Fairfax, VA</tspan></text>
<text xml:space="preserve" transform="matrix(1 0 -0 1 45.6 148)" font-size="8.5" font-family="Nimbus Roman"><tspan y="-2.5" x="10 12.975 15.1 21.237002 25.487002 32.100004 34.463 37.7695 41.076 43.439 47.689 51.939 54.302 56.427 61.153 64.927 67.29 69.653 71.778 76.028 80.278 84.528 88.778 90.903 92.603 94.728 100.3975 104.6475 111.2605 115.5105 117.8735 121.6475 124.0105 126.3735 130.6235 134.3975 136.5225 142.192 145.0225 148.79651 153.04651 155.40952 157.77252 161.07903 163.20403 166.03453 170.76053 175.01053 177.84104 180.20404 184.45404 188.70404 191.53455 193.89756 196.02256 200.27256">&#x2022; Admission: Fall 2025 | Cumulative Credits (Spring): 78</tspan></text>
<text xml:space="preserve" transform="matrix(1 0 -0 1 45.6 160.5)" font-size="8.5" font-family="Nimbus Roman"><tspan y="-2.5" x="10 12.975 15.1 20.7695 25.0195 27.85 30.6805 33.0435 36.8175 41.0675 43.4305 47.6805 54.2935 56.4185 59.249 63.499 67.273 71.523 74.829509 78.60351 82.85351 84.97851 89.22851 93.47851 95.60351 103.16001 107.41001 109.77301 113.54701 117.321018 121.571018 123.93401 127.708019 130.53852 132.66352 136.43752 140.68752 144.93752 147.06252 152.73201 156.50601 158.86902 161.23203 165.48203 167.84503 171.61904 174.44954 176.57454 182.71154 186.48554 190.73554 193.56604 197.81604 201.12255 204.89655 207.25955 211.03356 215.28356 219.05756 222.83156 224.95656 227.08156 232.75106 237.00106 243.61406 247.86406 252.11406 254.47707 258.25108 260.61408 262.97709 267.22709 271.47709 275.25108 277.61408 279.73908 285.87608 289.65007 293.90007 296.73057 300.98057 304.28706 308.06105 310.42405 314.19804 318.44804 322.22203 325.996 328.121 330.246 336.383 340.15699 344.40699 347.2375 351.01148 353.37449 355.49949 361.63648 365.41047 367.77348 373.91047 378.16047 380.99098 385.24098 388.54747 390.67247 392.79747 396.57145 400.82145 405.07145 407.19645 413.33345 417.10743 421.35743 424.18794 427.9619 430.32493 432.44993 435.28044 439.53044 442.36094 446.61094 449.44145 456.05445 459.82844 462.19145 464.55445 468.32844">&#x2022; Curriculum focused on Molecular and Cellular Neuroscience, Computational Neuroscience, Neural Networks, and Neural Informatics</tspan></text>
<text xml:space="preserve" transform="matrix(1 0 -0 1 39.6 177)" font-size="10" font-family="Nimbus Roman" font-weight="bold"><tspan y="-3" x="0 7.2200009 12.220001 16.660002 19.990002 25.550004 29.990004 34.430006 39.990007 42.490007 49.710008 52.490007 56.930009 61.930009 64.71001 70.270008 73.05 78.05 80.55 87.770008 92.770008 101.100009 109.43001 114.990009 120.55 123.33 126.66 131.66 134.16 141.38 146.38 149.16 151.94 156.38 161.38">Northern Virginia Community College</tspan></text>
<text xml:space="preserve" transform="matrix(1 0 -0 1 401.904 177)" font-size="9" font-family="Nimbus Roman" font-weight="bold"><tspan y="-4" x="125.496 129.996 134.496 138.996 143.496 145.746 150.246 152.496 156.996 161.496 165.996">2023 &#x2013; 2025</tspan></text>
<text xml:space="preserve" transform="matrix(1 0 -0 1 39.6 189)" font-size="9" font-family="Nimbus Roman" font-style="italic"><tspan y="-3" x="0 5.499 7.749 12.249001 14.499001 16.749 22.248002 26.748002 31.248002 33.75 38.25 42.246004 46.242006 49.743005 52.245004 56.745004">A.S. Engineering</tspan></text>
<text xml:space="preserve" transform="matrix(1 0 -0 1 401.904 189)" font-size="9" font-family="Nimbus Roman" font-style="italic"><tspan y="-3" x="84.249 89.748 94.248 98.748 103.248 107.748 112.248 116.748 119.25 123.246 125.496 131.49901 135.99901 142.49701 146.99701 151.49701 154.99802 157.24802 159.49802 164.99701">Annandale Campus, VA</tspan></text>
<text xml:space="preserve" transform="matrix(1 0 -0 1 45.6 200)" font-size="8.5" font-family="Nimbus Roman"><tspan y="-2.5" x="10 12.975 15.1 20.7695 25.0195 27.85 30.6805 33.0435 36.8175 41.0675 43.4305 47.6805 54.2935 56.4185 59.249 63.499 67.273 71.523 74.829509 78.60351 82.85351 84.97851 89.22851 93.47851 95.60351 99.85351 103.62751 107.87751 111.65151 114.48201 118.25601 120.61901 122.74401 126.51801 130.768 135.018 138.792 142.56601 144.92902 147.29203 151.54203 155.79203 157.91703 161.69103 165.94103 170.19103 172.31603 176.09003 180.34003 183.17053 186.94454 189.06954 193.79553 198.98903 204.18253">&#x2022; Curriculum focused on general education and core STEM</tspan></text>
<text xml:space="preserve" transform="matrix(1 0 -0 1 39.6 216.5)" font-size="10" font-family="Nimbus Roman" font-weight="bold"><tspan y="-3" x="0 10 15 19.44 23.880002 28.320002 33.88 36.38 43.600004 48.600004 54.160005 59.720006 63.050004 68.05 70.55 78.33 81.11 86.11 91.67 94.17 99.729999 104.17 109.729999 114.729999 119.729999">Warren County High School</tspan></text>
<text xml:space="preserve" transform="matrix(1 0 -0 1 401.904 216.5)" font-size="9" font-family="Nimbus Roman" font-weight="bold"><tspan y="-4" x="106.254 111.753 115.749 120.249 125.253 128.25 130.5 136.998 141.498 145.998 150.498 153 155.25 157.5 163.998">Front Royal, VA</tspan></text>
<text xml:space="preserve" transform="matrix(1 0 -0 1 45.6 238.5)" font-size="11" font-family="Nimbus Roman" font-weight="bold"><tspan y="-3" x="0 11 19.558 27.500002 36.058004 38.808004 46.145006 54.087007 60.808008 68.145008 76.087009 80.366008 87.703 95.645008 103.587009">WORK EXPERIENCE</tspan></text>
<path transform="matrix(1,0,0,-1,45.6,240.20001)" stroke-width=".7" stroke-linecap="round" stroke-miterlimit="10" stroke-linejoin="miter" fill="none" stroke="#000000" d="M0 0H520.8"/>
<text xml:space="preserve" transform="matrix(1 0 -0 1 39.6 257.2)" font-size="10" font-family="Nimbus Roman" font-weight="bold"><tspan y="-3" x="0 9.440001 16.660002 20.550004 23.050004 30.830004 34.160005 37.490007 40.270006 44.710008 49.15001 51.65001 58.87001 62.76001 66.65001 69.43001 73.32001 76.65001 81.65001 87.21001">MRI Office Assistant</tspan></text>
<text xml:space="preserve" transform="matrix(1 0 -0 1 401.904 257.2)" font-size="9" font-family="Nimbus Roman" font-weight="bold"><tspan y="-4" x="95.751 100.251 105.255 107.756999 112.256999 114.506999 119.006999 123.506999 128.00699 132.50699 134.75699 139.25699 141.50699 147.00598 151.00199 154.99799 158.499 162.495 167.499">July 2025 &#x2013; Present</tspan></text>
<text xml:space="preserve" transform="matrix(1 0 -0 1 39.6 269.2)" font-size="9" font-family="Nimbus Roman" font-style="italic"><tspan y="-3" x="0 2.997 7.4969999 10.998 13.5 16.002 18.504002 23.004002 25.506003 29.502003 31.752003 34.254 38.754 42.255 44.505 50.004 52.506 57.006 61.506 65.502 70.002 72.504 75.006 79.506 81.756 84.753 89.253 93.753 98.253 102.249 106.749 109.251 111.753 116.253 120.753 123.003 125.253 131.75099 135.747 140.247 143.748 148.248 152.244 154.494 161.991 166.491 169.992 174.492 178.992 181.242 187.74 192.24 194.742 198.738 202.73401 206.23502 209.73603 212.23802 214.74002">Institute for Biohealth Innovation, George Mason University</tspan></text>
<text xml:space="preserve" transform="matrix(1 0 -0 1 401.904 269.2)" font-size="9" font-family="Nimbus Roman" font-style="italic"><tspan y="-3" x="127.998 133.497 137.997 140.499 144 146.502 151.002 154.998 157.248 159.498 164.997">Fairfax, VA</tspan></text>
<text xml:space="preserve" transform="matrix(1 0 -0 1 45.6 280.2)" font-size="8.5" font-family="Nimbus Roman"><tspan y="-2.5" x="10 12.975 15.1 20.7695 25.0195 31.632502 35.8825 38.2455 42.0195 44.3825 48.1565 52.4065 54.5315 58.305505 62.555505 69.1685 71.5315 75.7815 78.1445 81.451007 83.814 86.6445 90.4185 92.7815 95.1445 99.3945 103.1685 105.2935 107.6565 111.430507 114.73701 118.98701 122.29351 124.41851 128.1925 131.49901 133.62401 136.45452 140.22852 144.47852 148.72852 152.50252 155.80902 158.17203 161.94603 166.19603 168.32103 172.57103 176.82103 178.94603 181.77654 185.55054 188.85704 192.63105 196.40505 199.23555 203.00955 207.25955 209.38455 213.15856 217.40856 224.02156 226.38457 230.63457 232.99758 236.30408 238.66709 241.49759 245.27159 247.6346 249.9976 254.2476 258.49763 260.62263 263.9291 266.2921 270.0661 272.8966">&#x2022; Completed administrative tasks as requested by research administration staff</tspan></text>
<text xml:space="preserve" transform="matrix(1 0 -0 1 45.6 292.7)" font-size="8.5" font-family="Nimbus Roman"><tspan y="-2.5" x="10 12.975 15.1 20.7695 24.5435 28.317502 32.091505 34.454504 38.704504 42.478506 46.728506 48.853506 52.627508 56.877508 59.240507 62.071008 66.32101 69.151508 71.5145 75.288509 79.538509 83.31251 85.67551 87.80051 95.35701 101.02651 103.85701 105.98201 108.34501 111.17551 114.94951 117.31251 121.56251 123.92551 128.1755 132.4255 134.5505 137.38101 140.21152 144.46152 151.07453 153.19953 156.97353 159.09853 162.87253 166.64653 169.47704 171.84004 174.20305 177.03356 179.39656 183.17057 187.42057 189.54557 197.10207 202.77156 205.60207 207.72707 212.92057 216.69457 220.46857 224.71857 228.96857 233.21857 235.58158 239.83158 244.08158 246.44458 249.75109">&#x2022; Received entry-level MRI training from a certified MRI Technologist</tspan></text>
<text xml:space="preserve" transform="matrix(1 0 -0 1 39.6 309.2)" font-size="10" font-family="Nimbus Roman" font-weight="bold"><tspan y="-3" x="0 7.7800009 11.110001 14.440001 17.220002 21.660002 26.100003 28.600003 35.820005 39.710004 43.600004 46.38 50.27 53.6 58.6 64.159999 67.49 69.99 72.49 76.38 83.049999 89.71999 92.21999 99.439998 103.88 109.439998 114.439998 118.88 122.21 130.54 134.98 140.54">Office Assistant, IET Department</tspan></text>
<text xml:space="preserve" transform="matrix(1 0 -0 1 401.904 309.2)" font-size="9" font-family="Nimbus Roman" font-weight="bold"><tspan y="-4" x="89.001 94.5 98.496 103.5 105.75 110.25 114.75 119.25 123.75 126 130.5 132.75 141.246 145.746 150.246 152.496 156.996 161.496 165.996">Feb 2025 &#x2013; May 2025</tspan></text>
<text xml:space="preserve" transform="matrix(1 0 -0 1 39.6 321.2)" font-size="9" font-family="Nimbus Roman" font-style="italic"><tspan y="-3" x="0 6.0030004 10.503 14.004001 16.506 21.006 25.002 28.503 33.003 35.253 40.752 43.253999 46.754999 51.254999 53.756998 58.256998 60.758996 65.258998 67.508998 73.51199 78.01199 84.509998 91.007999 95.507999 100.007999 102.509998 105.01199 109.007999 111.257999 117.260997 121.760997 124.26299 126.76499 130.76099 135.26099">Northern Virginia Community College</tspan></text>
<text xml:space="preserve" transform="matrix(1 0 -0 1 401.904 321.2)" font-size="9" font-family="Nimbus Roman" font-style="italic"><tspan y="-3" x="84.249 89.748 94.248 98.748 103.248 107.748 112.248 116.748 119.25 123.246 125.496 131.49901 135.99901 142.49701 146.99701 151.49701 154.99802 157.24802 159.49802 164.99701">Annandale Campus, VA</tspan></text>
<text xml:space="preserve" transform="matrix(1 0 -0 1 45.6 332.2)" font-size="8.5" font-family="Nimbus Roman"><tspan y="-2.5" x="10 12.975 15.1 20.7695 23.6 27.374 31.148 33.511 37.285005 41.535005 43.660005 46.966505 49.329504 55.9425 60.1925 62.5555 66.3295 68.6925 71.0555 75.3055 79.5555 81.6805 84.043498 87.8175 92.0675 95.374 97.499 99.862 104.112 106.237 110.011 114.261 120.874 125.124 129.374 131.737 135.511 137.87401 140.23702 144.48702 148.73702 152.51102 154.87403 156.99903 160.77303 165.02303 171.63603 175.88603 180.13603 182.49904 186.27304 189.10355 191.22855 195.47855 199.25255 201.61556 207.75255 212.00255 214.83306 219.08306">&#x2022; Created simulation labs in computational computer networks</tspan></text>
<text xml:space="preserve" transform="matrix(1 0 -0 1 45.6 344.7)" font-size="8.5" font-family="Nimbus Roman"><tspan y="-2.5" x="10 12.975 15.1 21.237002 25.011002 29.261002 33.511 37.761 42.011 45.785005 50.035005 52.160005 55.934007 60.184007 64.434009 66.559009 68.922008 71.7525 75.526508 79.776508 83.08301 85.913509 89.68751 92.518009 95.3485 99.122509 103.372509 105.497509 109.747509 113.52151 116.352008 120.602008 126.739009 130.513 133.3435 137.11751 139.24251 141.60552 145.85552 147.98052 151.28702 153.65003 157.90003 162.15003 165.92403 170.17403 172.53704 175.36754 178.19805 181.97205 186.22205 188.58506 192.35906 194.72206 196.84706 199.21007 202.98407 207.23407 209.59708 213.84708 218.09708 221.40358 223.76659 225.89159 229.66559 233.91559 238.16559 240.9961 243.3591 247.6091 251.8591 254.6896 258.4636 262.7136 264.8386 269.0886 272.86259 275.2256 281.36259 285.61259 288.44309 292.69309 295.99958 298.12458 301.89857 306.14857 310.39857 312.52357 315.83006 321.96705 324.33006 326.69306 330.46705 334.71705 338.49104 341.79753 343.92253 346.75303 351.00303 353.83354 355.95854 358.78904 363.98255 366.10755 368.47056 372.24455 376.49455">&#x2022; Debugged and transferred hardware in student-rental laptops; configured networks and switches for IT labs</tspan></text>
<text xml:space="preserve" transform="matrix(1 0 -0 1 45.6 357.2)" font-size="8.5" font-family="Nimbus Roman"><tspan y="-2.5" x="10 12.975 15.1 20.7695 25.0195 31.632502 35.8825 38.2455 42.0195 44.3825 48.1565 52.4065 54.5315 58.7815 62.555505 66.805507 70.579509 73.41 77.184009 79.547008 81.672008 85.922008 88.7525 91.583 93.946 97.72 101.494 103.619 107.393009 111.643009 115.893009 118.018009 120.381008 124.15501 128.405 130.53 134.78 139.03 141.393 143.75601 147.53002 150.83652 152.96152 156.73552 160.04203 162.16703 165.94103 169.24753 172.55403 174.91704 179.16704 183.41704 187.19104">&#x2022; Completed general office and lab duties as assigned</tspan></text>
<text xml:space="preserve" transform="matrix(1 0 -0 1 45.6 380.7)" font-size="11" font-family="Nimbus Roman" font-weight="bold"><tspan y="-3" x="0 7.942001 15.279001 21.395003 28.732003 36.674005 44.616006 52.558008">RESEARCH</tspan></text>
<path transform="matrix(1,0,0,-1,45.6,382.4)" stroke-width=".7" stroke-linecap="round" stroke-miterlimit="10" stroke-linejoin="miter" fill="none" stroke="#000000" d="M0 0H520.8"/>
<text xml:space="preserve" transform="matrix(1 0 -0 1 39.6 399.4)" font-size="10" font-family="Nimbus Roman" font-weight="bold"><tspan y="-3" x="0 7.2200009 12.780001 18.34 22.78 27.220002 32.22 36.660005 41.660005 47.220006 52.780008 57.780008 61.11001 65.55001 68.05001 75.27001 79.710018 83.60001 88.040019 93.040019 97.48002 101.92002 107.48002 109.98002 117.20002 121.09002 124.98002 127.76002 131.65003 134.98003 139.98003 145.54003">Undergraduate Research Assistant</tspan></text>
<text xml:space="preserve" transform="matrix(1 0 -0 1 401.904 399.4)" font-size="9" font-family="Nimbus Roman" font-weight="bold"><tspan y="-4" x="80.253 84.753 89.253 94.256999 99.260997 103.760997 107.756999 112.256999 114.506999 119.006999 123.506999 128.00699 132.50699 134.75699 139.25699 141.50699 147.00598 151.00199 154.99799 158.499 162.495 167.499">January 2026 &#x2013; Present</tspan></text>
<text xml:space="preserve" transform="matrix(1 0 -0 1 39.6 411.4)" font-size="9" font-family="Nimbus Roman" font-style="italic"><tspan y="-3" x="0 6.4980008 10.494001 14.994001 18.495 22.995 26.991002 29.241002 36.738004 41.238004 44.739004 49.239004 53.739004 55.989004 62.487005 66.987 69.489 73.485 77.481 80.982 84.483 86.985 89.487">George Mason University</tspan></text>
<text xml:space="preserve" transform="matrix(1 0 -0 1 401.904 411.4)" font-size="9" font-family="Nimbus Roman" font-style="italic"><tspan y="-3" x="127.998 133.497 137.997 140.499 144 146.502 151.002 154.998 157.248 159.498 164.997">Fairfax, VA</tspan></text>
<text xml:space="preserve" transform="matrix(1 0 -0 1 45.6 422.4)" font-size="8.5" font-family="Nimbus Roman"><tspan y="-2.5" x="10 12.975 15.1 20.7695 25.0195 27.382502 29.745503 33.519506 37.769506 42.019506 44.850008 48.62401 50.987009 53.350008 57.600008 61.850008 63.975008 68.225009 72.475009 74.600009 81.213008 84.98701 89.23701 93.48701 96.79351 100.56751 103.39801 105.76101 110.01101 112.37401 114.49901 118.74901 121.579509 125.35351 129.60352 133.37752 136.20803 139.98203 142.34503 144.70804 148.95804 153.20804 155.33304 158.16355 162.41355 165.24405 167.36905 171.14305 173.26805 177.04206 181.29206 187.90506 192.15506 195.92906 198.75957 202.53357 204.89658 207.25959 211.50959 215.28359 217.40859 221.18259 225.43259 229.20659 231.5696 235.8196 242.4326 246.6826 248.8076 252.5816 256.8316 261.0816 263.2066 267.4566 271.7066 275.9566 279.2631 281.6261 285.8761 288.2391 292.4891 296.7391 300.9891 303.1141 306.8881 311.1381 315.3881 319.16209 322.93608 325.29908 327.66209 331.91209 336.16209 338.28709 341.59358 343.95658 348.20658 352.45658">&#x2022; Collaborating on manuscript preparation for a comparative anatomy and physiology education study</tspan></text>
<text xml:space="preserve" transform="matrix(1 0 -0 1 45.6 434.9)" font-size="8.5" font-family="Nimbus Roman"><tspan y="-2.5" x="10 12.975 15.1 20.7695 25.0195 29.2695 31.632502 34.463 36.826 41.076 45.326 47.689 50.052 54.302 58.552 60.677 63.039999 67.28999 69.41499 73.66499 77.438999 79.801998 83.576 85.701 88.063999 92.313999 94.676998 98.451 101.281497 105.531497 108.36199 112.135997 114.49899 118.272998 120.635997 122.99899 127.24899 131.499 133.624 135.749 139.0555 142.8295 145.1925 148.9665 153.2165 155.57952 157.94252 160.77303 163.13603 166.91004 169.03504 175.17203 178.00254 180.36554 182.72855 185.09156 189.34156 193.59156 195.71656 197.84156 201.61556 205.86556 208.22856 210.59157 212.95458 217.20458 221.45458 223.57958 225.70458 229.47858 233.72858 237.97858 240.10358 244.35358 248.12758 250.95809 253.78859 257.5626 259.9256 262.2886 266.5386 270.3126 272.4376 276.6876 280.46159 284.71159 288.48558 290.84858 295.09858 299.34858 305.96159 309.73558 313.98558 316.34858 318.47358 321.30409 325.55409 328.38459 330.50959 334.75959 338.53358 342.30757 345.13807 347.96858 350.79908 354.57307 358.82307 361.18608 364.96006 371.09706 374.87104 379.12104 381.24604 385.49604 389.74604 393.99604 396.35905 398.72206 402.49604 406.27003 408.63304 410.99604 415.24604">&#x2022; Contributing to data interpretation, scientific writing, editing, and narrative development for peer-reviewed publication</tspan></text>
<text xml:space="preserve" transform="matrix(1 0 -0 1 45.6 458.4)" font-size="11" font-family="Nimbus Roman" font-weight="bold"><tspan y="-3" x="0 4.2790005 12.221001 19.558003 26.895005 34.837007 42.779008 48.895009 57.45301 61.73201 68.45301">INTERNSHIPS</tspan></text>
<path transform="matrix(1,0,0,-1,45.6,460.1)" stroke-width=".7" stroke-linecap="round" stroke-miterlimit="10" stroke-linejoin="miter" fill="none" stroke="#000000" d="M0 0H520.8"/>
<text xml:space="preserve" transform="matrix(1 0 -0 1 39.6 477.1)" font-size="10" font-family="Nimbus Roman" font-weight="bold"><tspan y="-3" x="0 7.2200009 11.660002 17.220002 21.660002 26.660002 29.990002 34.43 38.870004 44.430006 49.990007 54.990007 57.770006 62.770006 67.770008 72.770008 75.270008 78.05 83.61 86.11 93.89 98.33 102.770008 111.100009 116.100009 121.66 126.66 129.16 139.16 141.66 149.44 156.11 163.89 166.39 172.5 176.94 181.94 186.94 191.38 196.38">Neurotechnology in Germany &#x2014; GEO Program</tspan></text>
<text xml:space="preserve" transform="matrix(1 0 -0 1 401.904 477.1)" font-size="9" font-family="Nimbus Roman" font-weight="bold"><tspan y="-4" x="117.252 122.256 127.259998 134.75699 142.25399 146.24999 150.24599 152.49599 156.99599 161.49599 165.99599">Summer 2026</tspan></text>
<text xml:space="preserve" transform="matrix(1 0 -0 1 39.6 489.1)" font-size="9" font-family="Nimbus Roman" font-style="italic"><tspan y="-3" x="0 4.5 7.0020005 11.502001 16.002 19.998002 22.248002 27.747002 32.247 35.748 40.248 44.748 49.248 51.498 56.997 60.498 64.998 69.498 72.999 77.499">Study Abroad Program</tspan></text>
<text xml:space="preserve" transform="matrix(1 0 -0 1 401.904 489.1)" font-size="9" font-family="Nimbus Roman" font-style="italic"><tspan y="-3" x="137.007 143.505 147.501 151.00202 157.50002 162.00002 166.50002">Germany</tspan></text>
<text xml:space="preserve" transform="matrix(1 0 -0 1 45.6 500.1)" font-size="8.5" font-family="Nimbus Roman"><tspan y="-2.5" x="10 12.975 15.1 19.826 23.6 25.963002 29.737002 33.511 35.874 39.648004 43.898004 46.023004 48.386 52.636 54.761 58.535005 62.785005 67.035 70.809009 75.059009 78.83301 80.95801 87.09501 89.45801 91.82101 96.07101 98.19601 100.559009 104.33301 108.10701 112.35701 114.72001 118.97001 123.22001 125.34501 129.595 133.369 137.619 140.44951 144.69951 148.00601 151.78002 154.14302 157.91703 162.16703 165.94103 169.71503 171.84003 175.61403 179.86403 184.11403 186.23903 188.60204 192.37604 196.15004 200.40004 204.65004 208.90004 211.26305 215.51305 219.76305 224.01305 226.13805 228.96855 232.74256 236.04906 239.82306 243.59706 246.42757 250.20157 254.45157 258.22557 261.05607 264.36256 266.48756 270.26155 272.62455 274.74955 280.88655 285.13655 287.96705 290.33006 294.58006 297.41056 300.24107 304.01506 308.26506 312.51506 318.65205 322.90205 326.67604 330.92604 333.05104 339.18803 342.962 345.7925 352.40553 356.1795 360.4295 362.5545 366.8045 371.0545 373.4175 377.6675 381.4415 384.272 387.5785 389.9415 392.3045 394.6675 398.4415 401.748 403.873 407.64698 411.89698 416.14698 418.27198 421.10249 424.87648 428.18296 431.95695 435.73094 438.56144 442.33543 446.58543 448.71043 451.07344 455.32344 458.6299 460.99293 463.35594 465.71894 469.96894 472.33195 476.10594">&#x2022; Selected to engage with leading neuroscience and technology researchers at world-renowned German universities and research institutes</tspan></text>
<text xml:space="preserve" transform="matrix(1 0 -0 1 45.6 512.6)" font-size="8.5" font-family="Nimbus Roman"><tspan y="-2.5" x="10 12.975 15.1 23.124 25.487002 27.850003 30.213004 32.338006 35.644506 39.894506 44.144506 46.507505 50.757505 54.531507 57.838006 60.201005 63.975008 67.74901 69.87401 72.23701 76.48701 78.850009 82.62401 85.454509 89.704509 92.067508 95.37401 99.14801 101.51101 105.76101 108.12401 110.48701 114.73701 118.51101 121.34151 125.59151 127.71651 132.4425 137.636 142.8295 150.386 152.511 156.761 161.011 165.261 171.398 173.761 177.535 181.785 186.035 189.809 191.934 195.70801 199.95801 204.20801 206.33301 210.10701 214.35701 218.60701 220.97002 225.22002 228.05052 231.82453 233.94953 237.72353 241.97353 244.33654 246.69954 249.06255 253.31255 257.56257 260.39308 264.16706 268.41706 272.66706 276.44105 278.56605 281.39656 285.17054 288.47703 292.251 296.025 298.8555 302.6295 306.8795 309.0045 311.3675 315.6175 317.7425 321.9925 325.76649 330.01649 332.847 337.097 339.46 343.23399 347.00798 351.25798 355.50798 359.75798 362.12098 366.37098 370.62098 374.87098 376.99598 379.12098 385.73399 389.98399 392.347 396.12098 399.89497 404.14497 406.50798 410.28196 413.11247 415.23747 419.48747 421.85047 426.10047 428.46348 432.71348 436.96348 441.21348 443.33848 445.46348 449.23747 453.48747 457.73747 459.86247 464.11247 466.47547 470.72547 474.49946 478.74946 482.99946 485.36247 489.61247 493.38645 497.16044 499.99095 502.35395 506.60395">&#x2022; Will synthesize interdisciplinary STEM knowledge and explore cutting-edge research in neurotechnology, molecular biology, and bioengineering</tspan></text>
<text xml:space="preserve" transform="matrix(1 0 -0 1 45.6 536.1)" font-size="11" font-family="Nimbus Roman" font-weight="bold"><tspan y="-3" x="0 7.337001 14.674002 22.616003 30.558005 37.895006 45.837007 51.953008 60.51101 64.79001">LEADERSHIP</tspan></text>
<path transform="matrix(1,0,0,-1,45.6,537.8)" stroke-width=".7" stroke-linecap="round" stroke-miterlimit="10" stroke-linejoin="miter" fill="none" stroke="#000000" d="M0 0H520.8"/>
<text xml:space="preserve" transform="matrix(1 0 -0 1 39.6 554.8)" font-size="10" font-family="Nimbus Roman" font-weight="bold"><tspan y="-3" x="0 6.6700007 11.110001 15.550001 20.550002 24.440003 30.000004 34.440004 38.880006 43.320009 45.820009 48.320009 53.88001 57.210008 62.770009 68.33001 72.77001 78.33001 81.66001 85.55001 88.05001 90.83001 96.39001 98.89001 106.11001 110.55001 116.11001 120.55001 125.55001 129.44002 133.88002 136.66002 141.10002 146.66002 151.10002">Treasurer, Students in Neuroscience</tspan></text>
<text xml:space="preserve" transform="matrix(1 0 -0 1 401.904 554.8)" font-size="9" font-family="Nimbus Roman" font-weight="bold"><tspan y="-4" x="84.753 91.251 96.255 100.755 105.758998 109.259998 112.256999 114.506999 119.006999 123.506999 128.00699 132.50699 134.75699 139.25699 141.50699 147.00598 151.00199 154.99799 158.499 162.495 167.499">August 2026 &#x2013; Present</tspan></text>
<text xml:space="preserve" transform="matrix(1 0 -0 1 39.6 566.8)" font-size="9" font-family="Nimbus Roman" font-style="italic"><tspan y="-3" x="0 6.4980008 10.494001 14.994001 18.495 22.995 26.991002 29.241002 36.738004 41.238004 44.739004 49.239004 53.739004 55.989004 62.487005 66.987 69.489 73.485 77.481 80.982 84.483 86.985 89.487">George Mason University</tspan></text>
<text xml:space="preserve" transform="matrix(1 0 -0 1 401.904 566.8)" font-size="9" font-family="Nimbus Roman" font-style="italic"><tspan y="-3" x="127.998 133.497 137.997 140.499 144 146.502 151.002 154.998 157.248 159.498 164.997">Fairfax, VA</tspan></text>
<text xml:space="preserve" transform="matrix(1 0 -0 1 45.6 577.8)" font-size="8.5" font-family="Nimbus Roman"><tspan y="-2.5" x="10 12.975 15.1 21.237002 25.487002 32.100004 34.463 38.713 41.076 44.3825 46.7455 50.5195 53.350004 55.713 59.963 64.213 66.338 68.701 72.951 76.725 78.85 83.576 87.35 89.713 92.076 94.201 98.451 102.701 106.951 111.201 113.326 117.576 121.826 126.076 130.32599 134.09999 136.463 138.588 142.362 146.612 150.862 152.987 157.237 161.487 165.261 168.0915 171.39801 175.17201 178.94602 181.30902 185.55902 189.80902 191.93402 195.70803 199.95803 204.20803 207.98203 212.23203 215.53853 219.31253 221.43753 223.80054 226.63105 230.40505 234.17905 238.42905 240.79206 245.04206 249.29206 251.41706 254.24756 258.49757 261.32807 263.45307 265.81608 270.06608 273.84007 275.96507 279.27156 281.63456 285.88456 290.13456 293.90855 298.15855 300.52156 302.64656 306.89656 309.72706 313.97706 317.75105 322.00105 324.36405 328.13804 331.91203 334.27503 336.63804 340.88804">&#x2022; Administering the Fall 2026 budget and overseeing expense tracking for the student organization</tspan></text>
<text xml:space="preserve" transform="matrix(1 0 -0 1 45.6 601.3)" font-size="11" font-family="Nimbus Roman" font-weight="bold"><tspan y="-3" x="0 7.942001 16.500002 23.837002 31.779004 39.721006 47.058008 54.395009 61.73201 69.67401 73.95301 80.06901">VOLUNTEERISM</tspan></text>
<path transform="matrix(1,0,0,-1,45.6,603)" stroke-width=".7" stroke-linecap="round" stroke-miterlimit="10" stroke-linejoin="miter" fill="none" stroke="#000000" d="M0 0H520.8"/>
<text xml:space="preserve" transform="matrix(1 0 -0 1 39.6 620)" font-size="10" font-family="Nimbus Roman" font-weight="bold"><tspan y="-3" x="0 7.7800009 12.220001 16.660002 21.100003 26.660004 32.220006 37.220006 42.780008 46.670007 51.11001 53.61001 63.05001 68.05001 70.83001 76.39001 79.72001 84.16001 89.72001 94.72001 100.28001 104.72001 109.16001 111.66001 118.88001 123.88001 126.66001 132.22002 137.78002 141.11002 145.55002 149.99002">Greenhouse Maintenance Volunteer</tspan></text>
<text xml:space="preserve" transform="matrix(1 0 -0 1 401.904 620)" font-size="9" font-family="Nimbus Roman" font-weight="bold"><tspan y="-4" x="133.74 138.24 143.244 145.746 150.246 152.496 156.996 161.496 165.996">July 2025</tspan></text>
<text xml:space="preserve" transform="matrix(1 0 -0 1 39.6 632)" font-size="9" font-family="Nimbus Roman" font-style="italic"><tspan y="-3" x="0 6.4980008 10.998001 13.500002 17.496003 21.492003 24.993002 28.494002 30.996003 33.498 37.494005 39.744005 44.244005 48.744005 52.245004 54.747 59.247 61.749 66.249 70.749 75.249 77.751 80.253 82.755 85.256999 89.253 91.503 93.753 100.251 104.247 108.747 112.248 116.748 120.744 122.994 130.491 134.991 138.492 142.992 147.492 149.742 156.24 160.74 163.242 167.238 171.23401 174.73502 178.23603 180.73802 183.24002">University Sustainability, George Mason University</tspan></text>
<text xml:space="preserve" transform="matrix(1 0 -0 1 401.904 632)" font-size="9" font-family="Nimbus Roman" font-style="italic"><tspan y="-3" x="127.998 133.497 137.997 140.499 144 146.502 151.002 154.998 157.248 159.498 164.997">Fairfax, VA</tspan></text>
<text xml:space="preserve" transform="matrix(1 0 -0 1 45.6 643)" font-size="8.5" font-family="Nimbus Roman"><tspan y="-2.5" x="10 12.975 15.1 21.237002 24.5435 27.85 30.213002 33.5195 35.8825 39.6565 43.9065 46.0315 52.168504 54.5315 56.8945 61.1445 63.2695 67.5195 71.7695 76.0195 78.85 83.1 87.35 91.6 95.85 98.213 101.987 104.112 107.886 112.136 116.386 118.511 122.285 126.535 130.785 134.559 138.809 143.059 147.309 149.67201 153.44602 155.57102 158.87752 163.12752 166.43402 168.79703 172.57103 179.18404 181.30904 187.92205 191.69605 194.05905 198.30905 200.67206 204.44606 208.69606 212.47006 216.72006 220.49407 224.26807 226.39307 228.51807 232.76807 235.59857 239.84857 243.62258 247.87258 250.23558 254.00959 256.13459 260.38459 264.15858 267.46507 269.82807 271.95307 275.72706 279.97706 284.22706 286.59007 289.42057 293.67057 296.03358 298.15858 300.28358 304.05757 308.30757 312.55757 314.68257 318.93257 323.18257 325.54557 328.37608 330.73908 334.51307 338.76307 341.12608 343.25108 347.50108 351.27507 353.63807 357.41206 361.66206 365.43605 367.79905 372.04905">&#x2022; Assisted with hydroponic and aquaponic system maintenance, organic pest control, and nutrient balancing</tspan></text>
</svg>
